<svg width="307" height="16" viewBox="0 0 307 16" fill="none" xmlns="http://www.w3.org/2000/svg">
<path d="M11.3818 2.12695C11.2451 2.13184 11.0352 2.1709 10.752 2.24414C10.4688 2.31738 10.2661 2.39307 10.144 2.47119C9.96826 2.59326 9.84863 2.82764 9.78516 3.17432C9.72656 3.521 9.69727 3.96045 9.69727 4.49268V12.1025H9.06006L2.76123 3.59912V8.96045C2.76123 9.56104 2.79785 10.0225 2.87109 10.3447C2.94922 10.667 3.06641 10.8965 3.22266 11.0332C3.33496 11.1406 3.56689 11.2407 3.91846 11.3335C4.27002 11.4263 4.50195 11.4751 4.61426 11.48V12H0.351562V11.48C0.483398 11.4702 0.705566 11.4238 1.01807 11.3408C1.33057 11.2529 1.52588 11.1748 1.604 11.1064C1.7749 10.9697 1.89209 10.7622 1.95557 10.4839C2.01904 10.2007 2.05078 9.71973 2.05078 9.04102V3.92139C2.05078 3.69678 2.01172 3.47217 1.93359 3.24756C1.85547 3.02295 1.75049 2.84961 1.61865 2.72754C1.44287 2.56641 1.20361 2.42969 0.900879 2.31738C0.603027 2.2002 0.361328 2.13672 0.175781 2.12695V1.60693H3.14209L8.98682 9.53174V4.58789C8.98682 3.98242 8.94775 3.51855 8.86963 3.19629C8.7915 2.86914 8.6792 2.65186 8.53271 2.54443C8.396 2.45166 8.17139 2.36133 7.85889 2.27344C7.55127 2.18555 7.31689 2.13672 7.15576 2.12695V1.60693H11.3818V2.12695ZM19.7818 11.8682C19.5523 11.9512 19.3497 12.0171 19.1739 12.0659C19.003 12.1196 18.8077 12.1465 18.588 12.1465C18.2071 12.1465 17.902 12.0586 17.6725 11.8828C17.4479 11.7021 17.3038 11.4409 17.2403 11.0991H17.1964C16.879 11.4507 16.5372 11.7192 16.171 11.9048C15.8097 12.0903 15.3727 12.1831 14.86 12.1831C14.318 12.1831 13.8712 12.0171 13.5196 11.6851C13.1729 11.353 12.9996 10.9185 12.9996 10.3813C12.9996 10.103 13.0387 9.854 13.1168 9.63428C13.1949 9.41455 13.3121 9.2168 13.4684 9.04102C13.5904 8.89453 13.7516 8.76514 13.9518 8.65283C14.152 8.53564 14.3399 8.44287 14.5157 8.37451C14.7354 8.2915 15.1798 8.1377 15.8487 7.91309C16.5226 7.68848 16.9767 7.5127 17.211 7.38574V6.66064C17.211 6.59717 17.1964 6.4751 17.1671 6.29443C17.1427 6.11377 17.0865 5.94287 16.9986 5.78174C16.901 5.60107 16.7618 5.44482 16.5812 5.31299C16.4054 5.17627 16.1539 5.10791 15.8268 5.10791C15.6021 5.10791 15.3922 5.14697 15.1969 5.2251C15.0064 5.29834 14.8722 5.37646 14.794 5.45947C14.794 5.55713 14.816 5.70117 14.86 5.8916C14.9088 6.08203 14.9332 6.25781 14.9332 6.41895C14.9332 6.58984 14.8551 6.74609 14.6988 6.8877C14.5475 7.0293 14.3351 7.1001 14.0616 7.1001C13.8175 7.1001 13.6368 7.01465 13.5196 6.84375C13.4073 6.66797 13.3512 6.47266 13.3512 6.25781C13.3512 6.0332 13.4293 5.81836 13.5855 5.61328C13.7467 5.4082 13.9542 5.2251 14.2081 5.06396C14.4278 4.92725 14.6939 4.8125 15.0064 4.71973C15.3189 4.62207 15.6241 4.57324 15.922 4.57324C16.3321 4.57324 16.6886 4.60254 16.9913 4.66113C17.2989 4.71484 17.5772 4.83447 17.8263 5.02002C18.0753 5.20068 18.2633 5.44727 18.3902 5.75977C18.5221 6.06738 18.588 6.46533 18.588 6.95361C18.588 7.65186 18.5807 8.27197 18.566 8.81396C18.5514 9.35107 18.544 9.93945 18.544 10.5791C18.544 10.7695 18.5758 10.9209 18.6393 11.0332C18.7076 11.1455 18.8102 11.2407 18.9469 11.3188C19.0201 11.3628 19.1349 11.3872 19.2911 11.3921C19.4522 11.397 19.6158 11.3994 19.7818 11.3994V11.8682ZM17.2257 8.00098C16.8106 8.12305 16.4469 8.24268 16.1344 8.35986C15.8219 8.47705 15.5313 8.62354 15.2628 8.79932C15.0187 8.96533 14.8258 9.16309 14.6842 9.39258C14.5426 9.61719 14.4718 9.88574 14.4718 10.1982C14.4718 10.6035 14.5768 10.9014 14.7867 11.0918C15.0016 11.2822 15.2726 11.3774 15.5997 11.3774C15.9464 11.3774 16.2516 11.2944 16.5152 11.1284C16.7789 10.9575 17.0011 10.7573 17.1817 10.5278L17.2257 8.00098ZM33.7702 12H30.2473V11.5166C30.3596 11.5068 30.4719 11.4971 30.5842 11.4873C30.7014 11.4775 30.8039 11.458 30.8918 11.4287C31.0285 11.3848 31.1286 11.3091 31.1921 11.2017C31.2604 11.0894 31.2946 10.9453 31.2946 10.7695V7.0415C31.2946 6.53369 31.1774 6.14307 30.9431 5.86963C30.7136 5.59131 30.4255 5.45215 30.0788 5.45215C29.8396 5.45215 29.6149 5.48877 29.405 5.56201C29.195 5.63525 29.0021 5.73779 28.8264 5.86963C28.6848 5.97705 28.5651 6.09424 28.4675 6.22119C28.3747 6.34326 28.3039 6.4458 28.2551 6.52881V10.6963C28.2551 10.8672 28.2844 11.0088 28.343 11.1211C28.4016 11.2285 28.5017 11.3115 28.6433 11.3701C28.7556 11.4141 28.8557 11.4482 28.9436 11.4727C29.0363 11.4922 29.156 11.5068 29.3024 11.5166V12H25.8527V11.5166C25.965 11.5068 26.0725 11.4971 26.175 11.4873C26.2824 11.4775 26.3801 11.458 26.468 11.4287C26.6047 11.3848 26.7048 11.3091 26.7683 11.2017C26.8366 11.0894 26.8708 10.9453 26.8708 10.7695V7.0415C26.8708 6.53369 26.7536 6.14307 26.5192 5.86963C26.2897 5.59131 26.0017 5.45215 25.655 5.45215C25.4157 5.45215 25.1911 5.49121 24.9812 5.56934C24.7712 5.64258 24.5783 5.74512 24.4025 5.87695C24.2609 5.98438 24.1413 6.10645 24.0437 6.24316C23.946 6.375 23.8728 6.4751 23.8239 6.54346V10.6816C23.8239 10.8477 23.8581 10.9868 23.9265 11.0991C23.9948 11.2114 24.0974 11.2969 24.2341 11.3555C24.3366 11.4043 24.4416 11.4409 24.549 11.4653C24.6564 11.4897 24.7761 11.5068 24.9079 11.5166V12H21.3996V11.5166C21.5119 11.5068 21.6267 11.4971 21.7438 11.4873C21.8659 11.4775 21.9709 11.458 22.0588 11.4287C22.1955 11.3848 22.2956 11.3091 22.3591 11.2017C22.4274 11.0894 22.4616 10.9453 22.4616 10.7695V6.27979C22.4616 6.12354 22.425 5.98438 22.3518 5.8623C22.2834 5.73535 22.1857 5.62793 22.0588 5.54004C21.966 5.48145 21.8513 5.43506 21.7146 5.40088C21.5778 5.36182 21.4362 5.3374 21.2897 5.32764V4.85156L23.7067 4.69043L23.8093 4.79297V5.82568H23.8605C23.9826 5.70361 24.1315 5.55957 24.3073 5.39355C24.4831 5.22754 24.6467 5.09326 24.798 4.99072C24.9689 4.87354 25.1813 4.77588 25.4353 4.69775C25.694 4.61963 25.9724 4.58057 26.2702 4.58057C26.739 4.58057 27.1418 4.70752 27.4787 4.96143C27.8156 5.21045 28.0573 5.51318 28.2038 5.86963C28.3796 5.69873 28.5334 5.5498 28.6652 5.42285C28.802 5.29102 28.9802 5.15186 29.1999 5.00537C29.3854 4.87842 29.6027 4.77588 29.8518 4.69775C30.1057 4.61963 30.3864 4.58057 30.694 4.58057C31.3044 4.58057 31.7878 4.78076 32.1442 5.18115C32.5007 5.58154 32.6789 6.19678 32.6789 7.02686V10.6963C32.6789 10.8672 32.7082 11.0088 32.7668 11.1211C32.8254 11.2285 32.9255 11.3115 33.0671 11.3701C33.1794 11.4141 33.2893 11.4482 33.3967 11.4727C33.509 11.4922 33.6335 11.5068 33.7702 11.5166V12ZM41.9285 10.3008C41.6258 10.877 41.2205 11.3359 40.7127 11.6777C40.2049 12.0195 39.6214 12.1904 38.9622 12.1904C38.3812 12.1904 37.8709 12.0879 37.4314 11.8828C36.9969 11.6777 36.638 11.3994 36.3548 11.0479C36.0716 10.6963 35.8592 10.2861 35.7176 9.81738C35.5809 9.34863 35.5125 8.85303 35.5125 8.33057C35.5125 7.86182 35.5857 7.40283 35.7322 6.95361C35.8836 6.49951 36.1033 6.0918 36.3914 5.73047C36.6697 5.38379 37.014 5.10547 37.4241 4.89551C37.8392 4.68066 38.303 4.57324 38.8157 4.57324C39.3431 4.57324 39.7947 4.65625 40.1707 4.82227C40.5467 4.98828 40.8519 5.21533 41.0862 5.50342C41.3108 5.77686 41.4769 6.09912 41.5843 6.47021C41.6966 6.84131 41.7527 7.24414 41.7527 7.67871V8.16211H36.97C36.97 8.63574 37.014 9.06543 37.1019 9.45117C37.1946 9.83691 37.3387 10.1763 37.534 10.4692C37.7244 10.7524 37.9734 10.9771 38.2811 11.1431C38.5887 11.3042 38.9549 11.3848 39.3797 11.3848C39.8143 11.3848 40.1878 11.2847 40.5003 11.0845C40.8177 10.8794 41.1229 10.5132 41.4158 9.98584L41.9285 10.3008ZM40.3099 7.54688C40.3099 7.27344 40.2854 6.98047 40.2366 6.66797C40.1927 6.35547 40.1194 6.09424 40.0169 5.88428C39.9046 5.65967 39.7508 5.47656 39.5555 5.33496C39.3602 5.19336 39.1087 5.12256 38.8011 5.12256C38.2884 5.12256 37.8611 5.3374 37.5193 5.76709C37.1824 6.19189 36.9993 6.78516 36.97 7.54688H40.3099ZM55.2202 8.31592C55.2202 8.82373 55.1396 9.32422 54.9785 9.81738C54.8174 10.3057 54.5879 10.7207 54.29 11.0625C53.9531 11.4531 53.5625 11.7437 53.1182 11.9341C52.6738 12.1245 52.1758 12.2197 51.624 12.2197C51.165 12.2197 50.728 12.1343 50.313 11.9634C49.8979 11.7876 49.5293 11.5337 49.207 11.2017C48.8896 10.8745 48.6357 10.4766 48.4453 10.0078C48.2598 9.53418 48.167 9.00439 48.167 8.41846C48.167 7.29053 48.4941 6.36768 49.1484 5.6499C49.8076 4.93213 50.6694 4.57324 51.7339 4.57324C52.7446 4.57324 53.5771 4.91504 54.2314 5.59863C54.8906 6.27734 55.2202 7.18311 55.2202 8.31592ZM53.7041 8.33057C53.7041 7.96436 53.6675 7.57861 53.5942 7.17334C53.521 6.76318 53.4111 6.4165 53.2646 6.1333C53.1084 5.83057 52.9033 5.58887 52.6494 5.4082C52.3955 5.22266 52.0854 5.12988 51.7192 5.12988C51.3433 5.12988 51.021 5.22266 50.7524 5.4082C50.4888 5.59375 50.2739 5.84766 50.1079 6.16992C49.9517 6.46777 49.8418 6.80713 49.7783 7.18799C49.7148 7.56885 49.6831 7.9375 49.6831 8.29395C49.6831 8.7627 49.7197 9.19727 49.793 9.59766C49.8711 9.99316 49.9932 10.3472 50.1592 10.6597C50.3252 10.9722 50.5327 11.2188 50.7817 11.3994C51.0356 11.5752 51.3481 11.6631 51.7192 11.6631C52.3296 11.6631 52.813 11.3677 53.1694 10.7769C53.5259 10.186 53.7041 9.37061 53.7041 8.33057ZM62.5436 1.53369C62.5436 1.75342 62.485 1.93896 62.3678 2.09033C62.2506 2.2417 62.0724 2.31738 61.8331 2.31738C61.6817 2.31738 61.5475 2.28564 61.4303 2.22217C61.318 2.15869 61.213 2.07324 61.1153 1.96582C61.0177 1.8584 60.9273 1.73633 60.8443 1.59961C60.7613 1.46289 60.6905 1.35303 60.6319 1.27002C60.3048 1.28467 60.0509 1.51416 59.8702 1.9585C59.6944 2.39795 59.6065 3.10107 59.6065 4.06787V4.80762H61.4669V5.51074H59.6065V10.6963C59.6065 10.8672 59.6383 11.0063 59.7018 11.1138C59.7701 11.2212 59.8751 11.3018 60.0167 11.3555C60.1339 11.3994 60.2901 11.436 60.4855 11.4653C60.6808 11.4897 60.8492 11.5068 60.9908 11.5166V12H57.1822V11.5166C57.2945 11.5068 57.4093 11.4971 57.5265 11.4873C57.6485 11.4775 57.7535 11.458 57.8414 11.4287C57.9781 11.3848 58.0782 11.3091 58.1417 11.2017C58.2101 11.0894 58.2442 10.9453 58.2442 10.7695V5.51074H56.816V4.80762H58.2442V4.34619C58.2442 3.24756 58.5274 2.35889 59.0938 1.68018C59.6651 0.996582 60.378 0.654785 61.2325 0.654785C61.6671 0.654785 61.9942 0.740234 62.214 0.911133C62.4337 1.08203 62.5436 1.28955 62.5436 1.53369ZM71.9241 11.6851C71.6067 11.8169 71.3064 11.9268 71.0232 12.0146C70.74 12.1074 70.3934 12.1538 69.9832 12.1538C69.3777 12.1538 68.9505 12.0024 68.7015 11.6997C68.4573 11.3921 68.3353 10.96 68.3353 10.4033V5.51074H67.0315V4.80762H68.3645V2.55908H69.6976V4.80762H71.7703V5.51074H69.7122V9.54639C69.7122 9.84912 69.722 10.103 69.7415 10.3081C69.7659 10.5083 69.8196 10.6841 69.9026 10.8354C69.9808 10.9771 70.0979 11.0845 70.2542 11.1577C70.4104 11.231 70.6204 11.2676 70.8841 11.2676C71.0061 11.2676 71.1844 11.2578 71.4187 11.2383C71.658 11.2139 71.8265 11.1846 71.9241 11.1504V11.6851ZM81.3935 12H77.8485V11.5166C77.9608 11.5068 78.0854 11.4971 78.2221 11.4873C78.3588 11.4775 78.4711 11.458 78.559 11.4287C78.6957 11.3848 78.7958 11.3091 78.8593 11.2017C78.9276 11.0894 78.9618 10.9453 78.9618 10.7695V7.05615C78.9618 6.54346 78.8397 6.14795 78.5956 5.86963C78.3563 5.59131 78.0634 5.45215 77.7167 5.45215C77.4628 5.45215 77.226 5.49365 77.0062 5.57666C76.7914 5.65479 76.5985 5.75244 76.4276 5.86963C76.2616 5.9917 76.1347 6.11377 76.0468 6.23584C75.9589 6.35791 75.8905 6.46045 75.8417 6.54346V10.6963C75.8417 10.8623 75.8734 10.999 75.9369 11.1064C76.0053 11.2139 76.1078 11.2969 76.2445 11.3555C76.352 11.4043 76.4618 11.4409 76.5741 11.4653C76.6913 11.4897 76.8183 11.5068 76.955 11.5166V12H73.4101V11.5166C73.5224 11.5068 73.6395 11.4971 73.7616 11.4873C73.8837 11.4727 73.9862 11.4531 74.0692 11.4287C74.206 11.3848 74.3085 11.3091 74.3769 11.2017C74.4452 11.0894 74.4794 10.9453 74.4794 10.7695V2.36133C74.4794 2.19531 74.4403 2.0293 74.3622 1.86328C74.289 1.69727 74.1913 1.57275 74.0692 1.48975C73.9813 1.42627 73.8251 1.38232 73.6005 1.35791C73.3808 1.32861 73.2025 1.30908 73.0658 1.29932V0.830566L75.7392 0.662109L75.8417 0.771973V5.81104H75.871C76.0321 5.6499 76.1786 5.5083 76.3104 5.38623C76.4423 5.25928 76.6156 5.12744 76.8305 4.99072C77.016 4.87354 77.2333 4.77588 77.4823 4.69775C77.7362 4.61963 78.0194 4.58057 78.3319 4.58057C78.9765 4.58057 79.4721 4.78564 79.8187 5.1958C80.1654 5.60107 80.3388 6.18701 80.3388 6.95361V10.7109C80.3388 10.8818 80.3681 11.021 80.4267 11.1284C80.4901 11.231 80.5927 11.3115 80.7343 11.3701C80.8466 11.4141 80.9467 11.4482 81.0346 11.4727C81.1273 11.4922 81.247 11.5068 81.3935 11.5166V12ZM89.5957 10.3008C89.293 10.877 88.8877 11.3359 88.3799 11.6777C87.8721 12.0195 87.2886 12.1904 86.6294 12.1904C86.0483 12.1904 85.5381 12.0879 85.0986 11.8828C84.6641 11.6777 84.3052 11.3994 84.022 11.0479C83.7388 10.6963 83.5264 10.2861 83.3848 9.81738C83.248 9.34863 83.1797 8.85303 83.1797 8.33057C83.1797 7.86182 83.2529 7.40283 83.3994 6.95361C83.5508 6.49951 83.7705 6.0918 84.0586 5.73047C84.3369 5.38379 84.6812 5.10547 85.0913 4.89551C85.5063 4.68066 85.9702 4.57324 86.4829 4.57324C87.0103 4.57324 87.4619 4.65625 87.8379 4.82227C88.2139 4.98828 88.519 5.21533 88.7534 5.50342C88.978 5.77686 89.144 6.09912 89.2515 6.47021C89.3638 6.84131 89.4199 7.24414 89.4199 7.67871V8.16211H84.6372C84.6372 8.63574 84.6812 9.06543 84.769 9.45117C84.8618 9.83691 85.0059 10.1763 85.2012 10.4692C85.3916 10.7524 85.6406 10.9771 85.9482 11.1431C86.2559 11.3042 86.6221 11.3848 87.0469 11.3848C87.4814 11.3848 87.855 11.2847 88.1675 11.0845C88.4849 10.8794 88.79 10.5132 89.083 9.98584L89.5957 10.3008ZM87.9771 7.54688C87.9771 7.27344 87.9526 6.98047 87.9038 6.66797C87.8599 6.35547 87.7866 6.09424 87.6841 5.88428C87.5718 5.65967 87.418 5.47656 87.2227 5.33496C87.0273 5.19336 86.7759 5.12256 86.4683 5.12256C85.9556 5.12256 85.5283 5.3374 85.1865 5.76709C84.8496 6.19189 84.6665 6.78516 84.6372 7.54688H87.9771ZM103.18 8.38184C103.18 9.46582 102.839 10.3765 102.155 11.1138C101.471 11.8511 100.678 12.2197 99.7746 12.2197C99.3791 12.2197 98.9885 12.1587 98.6027 12.0366C98.2219 11.9146 97.863 11.751 97.5261 11.5459L96.9841 12.3882L96.53 12.2856C96.5544 11.9243 96.5715 11.4897 96.5813 10.9819C96.591 10.4741 96.5959 9.9834 96.5959 9.50977V2.36133C96.5959 2.19531 96.5568 2.0293 96.4787 1.86328C96.4055 1.69727 96.3103 1.57764 96.1931 1.50439C96.1003 1.44092 95.944 1.39453 95.7243 1.36523C95.5095 1.33105 95.3361 1.30908 95.2043 1.29932V0.830566L97.8557 0.662109L97.9582 0.771973V5.53271L98.0095 5.54736C98.3122 5.2251 98.6418 4.9834 98.9982 4.82227C99.3596 4.66113 99.7136 4.58057 100.06 4.58057C100.949 4.58057 101.691 4.93213 102.287 5.63525C102.883 6.33838 103.18 7.25391 103.18 8.38184ZM101.65 8.43311C101.65 8.07178 101.611 7.70312 101.532 7.32715C101.454 6.95117 101.332 6.62402 101.166 6.3457C101 6.0625 100.783 5.83301 100.514 5.65723C100.246 5.48145 99.9235 5.39355 99.5476 5.39355C99.2058 5.39355 98.9055 5.46191 98.6467 5.59863C98.3928 5.73047 98.1633 5.91113 97.9582 6.14062V10.3447C97.9875 10.4619 98.0437 10.5986 98.1267 10.7549C98.2146 10.9111 98.3317 11.0601 98.4782 11.2017C98.6247 11.3384 98.7907 11.4507 98.9763 11.5386C99.1618 11.6216 99.3889 11.6631 99.6574 11.6631C100.253 11.6631 100.734 11.375 101.1 10.7988C101.467 10.2227 101.65 9.43408 101.65 8.43311ZM111.998 11.8682C111.768 11.9512 111.566 12.0171 111.39 12.0659C111.219 12.1196 111.024 12.1465 110.804 12.1465C110.423 12.1465 110.118 12.0586 109.888 11.8828C109.664 11.7021 109.52 11.4409 109.456 11.0991H109.412C109.095 11.4507 108.753 11.7192 108.387 11.9048C108.026 12.0903 107.589 12.1831 107.076 12.1831C106.534 12.1831 106.087 12.0171 105.736 11.6851C105.389 11.353 105.216 10.9185 105.216 10.3813C105.216 10.103 105.255 9.854 105.333 9.63428C105.411 9.41455 105.528 9.2168 105.684 9.04102C105.806 8.89453 105.968 8.76514 106.168 8.65283C106.368 8.53564 106.556 8.44287 106.732 8.37451C106.951 8.2915 107.396 8.1377 108.065 7.91309C108.739 7.68848 109.193 7.5127 109.427 7.38574V6.66064C109.427 6.59717 109.412 6.4751 109.383 6.29443C109.359 6.11377 109.303 5.94287 109.215 5.78174C109.117 5.60107 108.978 5.44482 108.797 5.31299C108.621 5.17627 108.37 5.10791 108.043 5.10791C107.818 5.10791 107.608 5.14697 107.413 5.2251C107.222 5.29834 107.088 5.37646 107.01 5.45947C107.01 5.55713 107.032 5.70117 107.076 5.8916C107.125 6.08203 107.149 6.25781 107.149 6.41895C107.149 6.58984 107.071 6.74609 106.915 6.8877C106.763 7.0293 106.551 7.1001 106.278 7.1001C106.033 7.1001 105.853 7.01465 105.736 6.84375C105.623 6.66797 105.567 6.47266 105.567 6.25781C105.567 6.0332 105.645 5.81836 105.802 5.61328C105.963 5.4082 106.17 5.2251 106.424 5.06396C106.644 4.92725 106.91 4.8125 107.222 4.71973C107.535 4.62207 107.84 4.57324 108.138 4.57324C108.548 4.57324 108.905 4.60254 109.207 4.66113C109.515 4.71484 109.793 4.83447 110.042 5.02002C110.291 5.20068 110.479 5.44727 110.606 5.75977C110.738 6.06738 110.804 6.46533 110.804 6.95361C110.804 7.65186 110.797 8.27197 110.782 8.81396C110.767 9.35107 110.76 9.93945 110.76 10.5791C110.76 10.7695 110.792 10.9209 110.855 11.0332C110.924 11.1455 111.026 11.2407 111.163 11.3188C111.236 11.3628 111.351 11.3872 111.507 11.3921C111.668 11.397 111.832 11.3994 111.998 11.3994V11.8682ZM109.442 8.00098C109.027 8.12305 108.663 8.24268 108.35 8.35986C108.038 8.47705 107.747 8.62354 107.479 8.79932C107.235 8.96533 107.042 9.16309 106.9 9.39258C106.759 9.61719 106.688 9.88574 106.688 10.1982C106.688 10.6035 106.793 10.9014 107.003 11.0918C107.218 11.2822 107.489 11.3774 107.816 11.3774C108.162 11.3774 108.468 11.2944 108.731 11.1284C108.995 10.9575 109.217 10.7573 109.398 10.5278L109.442 8.00098ZM121.592 12H118.054V11.5166C118.166 11.5068 118.288 11.4971 118.42 11.4873C118.557 11.4775 118.669 11.458 118.757 11.4287C118.894 11.3848 118.994 11.3091 119.058 11.2017C119.126 11.0894 119.16 10.9453 119.16 10.7695V7.05615C119.16 6.54346 119.038 6.14795 118.794 5.86963C118.555 5.59131 118.262 5.45215 117.915 5.45215C117.656 5.45215 117.419 5.49365 117.204 5.57666C116.99 5.65479 116.799 5.75244 116.633 5.86963C116.472 5.98193 116.343 6.104 116.245 6.23584C116.152 6.36279 116.084 6.46533 116.04 6.54346V10.6963C116.04 10.8623 116.074 10.999 116.142 11.1064C116.211 11.2139 116.313 11.2969 116.45 11.3555C116.553 11.4043 116.662 11.4409 116.78 11.4653C116.902 11.4897 117.026 11.5068 117.153 11.5166V12H113.616V11.5166C113.728 11.5068 113.843 11.4971 113.96 11.4873C114.082 11.4775 114.187 11.458 114.275 11.4287C114.412 11.3848 114.512 11.3091 114.575 11.2017C114.643 11.0894 114.678 10.9453 114.678 10.7695V6.30908C114.678 6.14307 114.641 5.9917 114.568 5.85498C114.499 5.71338 114.402 5.59863 114.275 5.51074C114.182 5.45215 114.072 5.41064 113.945 5.38623C113.818 5.35693 113.682 5.3374 113.535 5.32764V4.85156L115.937 4.69043L116.04 4.79297V5.81104H116.077C116.194 5.69385 116.34 5.55469 116.516 5.39355C116.692 5.22754 116.858 5.09326 117.014 4.99072C117.195 4.87354 117.41 4.77588 117.659 4.69775C117.908 4.61963 118.188 4.58057 118.501 4.58057C119.194 4.58057 119.707 4.79785 120.039 5.23242C120.376 5.66211 120.544 6.23584 120.544 6.95361V10.7109C120.544 10.8818 120.574 11.021 120.632 11.1284C120.691 11.231 120.791 11.3115 120.933 11.3701C121.05 11.4189 121.15 11.4531 121.233 11.4727C121.321 11.4922 121.44 11.5068 121.592 11.5166V12ZM131.032 12H128.849C128.468 11.4482 128.061 10.8574 127.626 10.2275C127.191 9.59766 126.74 8.98486 126.271 8.38916L125.67 8.95312V10.667C125.67 10.8428 125.702 10.9893 125.766 11.1064C125.829 11.2188 125.932 11.3018 126.073 11.3555C126.19 11.4043 126.303 11.4409 126.41 11.4653C126.518 11.4897 126.642 11.5068 126.784 11.5166V12H123.239V11.5166C123.351 11.5068 123.468 11.4971 123.59 11.4873C123.712 11.4727 123.815 11.4531 123.898 11.4287C124.035 11.3848 124.137 11.3091 124.206 11.2017C124.274 11.0894 124.308 10.9453 124.308 10.7695V2.37598C124.308 2.19531 124.269 2.02686 124.191 1.87061C124.118 1.70947 124.02 1.5874 123.898 1.50439C123.795 1.42627 123.634 1.375 123.415 1.35059C123.2 1.32617 123.026 1.30908 122.895 1.29932V0.830566L125.568 0.662109L125.67 0.771973V8.41113C126.051 8.03027 126.461 7.62256 126.901 7.18799C127.345 6.74854 127.719 6.35791 128.021 6.01611C128.061 5.97217 128.102 5.91602 128.146 5.84766C128.195 5.77441 128.219 5.71582 128.219 5.67188C128.219 5.54004 128.112 5.44238 127.897 5.37891C127.687 5.31543 127.484 5.27148 127.289 5.24707V4.77832H130.468V5.23242C130.058 5.35449 129.694 5.5083 129.376 5.69385C129.064 5.87451 128.825 6.03809 128.659 6.18457C128.542 6.28223 128.375 6.44092 128.161 6.66064C127.946 6.88037 127.646 7.16846 127.26 7.5249C127.66 8.01807 128.109 8.60889 128.607 9.29736C129.11 9.98584 129.477 10.4839 129.706 10.7915C129.921 11.0796 130.114 11.2676 130.285 11.3555C130.456 11.4434 130.705 11.4971 131.032 11.5166V12ZM142.683 0.845215L137.622 15.1055H136.67L141.716 0.845215H142.683ZM157.923 4.42676H157.417C157.373 4.25098 157.293 4.04346 157.176 3.8042C157.063 3.56006 156.936 3.33057 156.795 3.11572C156.648 2.89111 156.487 2.6958 156.311 2.52979C156.141 2.35889 155.975 2.26123 155.813 2.23682C155.662 2.21729 155.472 2.20264 155.242 2.19287C155.013 2.18311 154.8 2.17822 154.605 2.17822H154.18V10.4912C154.18 10.6523 154.214 10.8013 154.283 10.938C154.351 11.0698 154.471 11.1724 154.642 11.2456C154.729 11.2798 154.913 11.3262 155.191 11.3848C155.474 11.4434 155.694 11.4751 155.85 11.48V12H150.943V11.48C151.079 11.4702 151.287 11.4507 151.565 11.4214C151.849 11.3921 152.044 11.3555 152.151 11.3115C152.312 11.248 152.43 11.1577 152.503 11.0405C152.581 10.9185 152.62 10.7573 152.62 10.5571V2.17822H152.195C152.044 2.17822 151.856 2.18311 151.631 2.19287C151.407 2.19775 151.192 2.2124 150.987 2.23682C150.826 2.25635 150.657 2.354 150.481 2.52979C150.31 2.70068 150.152 2.896 150.005 3.11572C149.859 3.33545 149.729 3.56982 149.617 3.81885C149.505 4.06299 149.427 4.26562 149.383 4.42676H148.87V1.60693H157.923V4.42676ZM158.925 14.3584C158.925 14.1143 158.991 13.9141 159.123 13.7578C159.26 13.6064 159.428 13.5308 159.628 13.5308C159.785 13.5308 159.919 13.5601 160.031 13.6187C160.144 13.6772 160.244 13.7529 160.332 13.8457C160.405 13.9189 160.483 14.019 160.566 14.146C160.649 14.2729 160.715 14.3779 160.764 14.4609C161.008 14.3291 161.298 13.9849 161.635 13.4282C161.977 12.8716 162.224 12.3833 162.375 11.9634C161.911 10.8062 161.491 9.771 161.115 8.85791C160.739 7.94482 160.346 7 159.936 6.02344C159.843 5.79883 159.687 5.62549 159.467 5.50342C159.248 5.37646 159.028 5.2959 158.808 5.26172V4.77832H162.104V5.29102C161.958 5.2959 161.782 5.32764 161.577 5.38623C161.372 5.43994 161.269 5.51562 161.269 5.61328C161.269 5.61328 161.281 5.6499 161.306 5.72314C161.335 5.79639 161.359 5.86719 161.379 5.93555C161.564 6.41895 161.848 7.11719 162.229 8.03027C162.609 8.93848 162.905 9.66602 163.115 10.2129C163.334 9.69043 163.562 9.15088 163.796 8.59424C164.035 8.03271 164.301 7.37109 164.594 6.60938C164.628 6.5166 164.677 6.38965 164.741 6.22852C164.804 6.0625 164.836 5.9209 164.836 5.80371C164.836 5.67676 164.724 5.55957 164.499 5.45215C164.279 5.33984 164.069 5.27148 163.869 5.24707V4.77832H166.55V5.23242C166.403 5.25684 166.21 5.34229 165.971 5.48877C165.732 5.63037 165.554 5.83301 165.437 6.09668C164.855 7.44434 164.338 8.67236 163.884 9.78076C163.435 10.8892 163.093 11.7046 162.858 12.2271C162.551 12.9106 162.275 13.4429 162.031 13.8237C161.792 14.2095 161.557 14.5122 161.328 14.7319C161.103 14.937 160.898 15.0737 160.712 15.1421C160.532 15.2153 160.344 15.252 160.148 15.252C159.768 15.252 159.467 15.1616 159.248 14.981C159.033 14.8003 158.925 14.5928 158.925 14.3584ZM174.357 5.63525C174.645 5.97705 174.867 6.375 175.023 6.8291C175.184 7.27832 175.265 7.79346 175.265 8.37451C175.265 8.9458 175.17 9.46826 174.979 9.94189C174.789 10.4106 174.537 10.811 174.225 11.1431C173.898 11.48 173.534 11.7388 173.133 11.9194C172.733 12.1001 172.308 12.1904 171.859 12.1904C171.424 12.1904 171.068 12.1416 170.79 12.0439C170.511 11.9463 170.284 11.8315 170.108 11.6997H170.05V13.8677C170.05 14.0435 170.084 14.1899 170.152 14.3071C170.221 14.4243 170.326 14.5098 170.467 14.5635C170.585 14.6074 170.751 14.6489 170.965 14.688C171.185 14.7319 171.366 14.7563 171.507 14.7612V15.252H167.472V14.7612C167.623 14.7515 167.77 14.7393 167.911 14.7246C168.053 14.71 168.18 14.6855 168.292 14.6514C168.439 14.6025 168.541 14.5171 168.6 14.395C168.658 14.2729 168.688 14.1289 168.688 13.9629V6.27979C168.688 6.1333 168.651 5.9917 168.578 5.85498C168.504 5.71826 168.409 5.6084 168.292 5.52539C168.204 5.4668 168.082 5.42285 167.926 5.39355C167.77 5.35938 167.618 5.3374 167.472 5.32764V4.85156L169.933 4.69043L170.035 4.77832V5.59131L170.094 5.60596C170.348 5.31299 170.663 5.06885 171.039 4.87354C171.415 4.67822 171.788 4.58057 172.159 4.58057C172.608 4.58057 173.019 4.67578 173.39 4.86621C173.766 5.05664 174.088 5.31299 174.357 5.63525ZM173.163 10.8281C173.358 10.5254 173.502 10.1738 173.595 9.77344C173.688 9.37305 173.734 8.92627 173.734 8.43311C173.734 8.07178 173.695 7.70312 173.617 7.32715C173.539 6.95117 173.417 6.62402 173.251 6.3457C173.085 6.0625 172.867 5.83301 172.599 5.65723C172.33 5.48145 172.008 5.39355 171.632 5.39355C171.271 5.39355 170.963 5.47412 170.709 5.63525C170.455 5.7915 170.235 5.97949 170.05 6.19922V10.4692C170.094 10.6011 170.165 10.7378 170.262 10.8794C170.365 11.021 170.477 11.1431 170.599 11.2456C170.751 11.3677 170.914 11.4678 171.09 11.5459C171.266 11.6191 171.481 11.6558 171.734 11.6558C172.008 11.6558 172.272 11.585 172.525 11.4434C172.779 11.2969 172.992 11.0918 173.163 10.8281ZM183.643 10.3008C183.34 10.877 182.935 11.3359 182.427 11.6777C181.919 12.0195 181.336 12.1904 180.676 12.1904C180.095 12.1904 179.585 12.0879 179.146 11.8828C178.711 11.6777 178.352 11.3994 178.069 11.0479C177.786 10.6963 177.573 10.2861 177.432 9.81738C177.295 9.34863 177.227 8.85303 177.227 8.33057C177.227 7.86182 177.3 7.40283 177.446 6.95361C177.598 6.49951 177.818 6.0918 178.106 5.73047C178.384 5.38379 178.728 5.10547 179.138 4.89551C179.553 4.68066 180.017 4.57324 180.53 4.57324C181.057 4.57324 181.509 4.65625 181.885 4.82227C182.261 4.98828 182.566 5.21533 182.8 5.50342C183.025 5.77686 183.191 6.09912 183.299 6.47021C183.411 6.84131 183.467 7.24414 183.467 7.67871V8.16211H178.684C178.684 8.63574 178.728 9.06543 178.816 9.45117C178.909 9.83691 179.053 10.1763 179.248 10.4692C179.439 10.7524 179.688 10.9771 179.995 11.1431C180.303 11.3042 180.669 11.3848 181.094 11.3848C181.529 11.3848 181.902 11.2847 182.215 11.0845C182.532 10.8794 182.837 10.5132 183.13 9.98584L183.643 10.3008ZM182.024 7.54688C182.024 7.27344 182 6.98047 181.951 6.66797C181.907 6.35547 181.834 6.09424 181.731 5.88428C181.619 5.65967 181.465 5.47656 181.27 5.33496C181.074 5.19336 180.823 5.12256 180.515 5.12256C180.003 5.12256 179.575 5.3374 179.234 5.76709C178.897 6.19189 178.714 6.78516 178.684 7.54688H182.024ZM196.934 8.31592C196.934 8.82373 196.854 9.32422 196.693 9.81738C196.532 10.3057 196.302 10.7207 196.004 11.0625C195.667 11.4531 195.277 11.7437 194.832 11.9341C194.388 12.1245 193.89 12.2197 193.338 12.2197C192.879 12.2197 192.442 12.1343 192.027 11.9634C191.612 11.7876 191.244 11.5337 190.921 11.2017C190.604 10.8745 190.35 10.4766 190.16 10.0078C189.974 9.53418 189.881 9.00439 189.881 8.41846C189.881 7.29053 190.208 6.36768 190.863 5.6499C191.522 4.93213 192.384 4.57324 193.448 4.57324C194.459 4.57324 195.291 4.91504 195.946 5.59863C196.605 6.27734 196.934 7.18311 196.934 8.31592ZM195.418 8.33057C195.418 7.96436 195.382 7.57861 195.309 7.17334C195.235 6.76318 195.125 6.4165 194.979 6.1333C194.823 5.83057 194.618 5.58887 194.364 5.4082C194.11 5.22266 193.8 5.12988 193.434 5.12988C193.058 5.12988 192.735 5.22266 192.467 5.4082C192.203 5.59375 191.988 5.84766 191.822 6.16992C191.666 6.46777 191.556 6.80713 191.493 7.18799C191.429 7.56885 191.397 7.9375 191.397 8.29395C191.397 8.7627 191.434 9.19727 191.507 9.59766C191.585 9.99316 191.707 10.3472 191.873 10.6597C192.039 10.9722 192.247 11.2188 192.496 11.3994C192.75 11.5752 193.062 11.6631 193.434 11.6631C194.044 11.6631 194.527 11.3677 194.884 10.7769C195.24 10.186 195.418 9.37061 195.418 8.33057ZM204.258 1.53369C204.258 1.75342 204.199 1.93896 204.082 2.09033C203.965 2.2417 203.787 2.31738 203.547 2.31738C203.396 2.31738 203.262 2.28564 203.145 2.22217C203.032 2.15869 202.927 2.07324 202.83 1.96582C202.732 1.8584 202.642 1.73633 202.559 1.59961C202.476 1.46289 202.405 1.35303 202.346 1.27002C202.019 1.28467 201.765 1.51416 201.584 1.9585C201.409 2.39795 201.321 3.10107 201.321 4.06787V4.80762H203.181V5.51074H201.321V10.6963C201.321 10.8672 201.353 11.0063 201.416 11.1138C201.484 11.2212 201.589 11.3018 201.731 11.3555C201.848 11.3994 202.004 11.436 202.2 11.4653C202.395 11.4897 202.563 11.5068 202.705 11.5166V12H198.896V11.5166C199.009 11.5068 199.124 11.4971 199.241 11.4873C199.363 11.4775 199.468 11.458 199.556 11.4287C199.692 11.3848 199.792 11.3091 199.856 11.2017C199.924 11.0894 199.958 10.9453 199.958 10.7695V5.51074H198.53V4.80762H199.958V4.34619C199.958 3.24756 200.242 2.35889 200.808 1.68018C201.379 0.996582 202.092 0.654785 202.947 0.654785C203.381 0.654785 203.708 0.740234 203.928 0.911133C204.148 1.08203 204.258 1.28955 204.258 1.53369ZM216.509 8.38184C216.509 9.46582 216.168 10.3765 215.484 11.1138C214.8 11.8511 214.007 12.2197 213.104 12.2197C212.708 12.2197 212.318 12.1587 211.932 12.0366C211.551 11.9146 211.192 11.751 210.855 11.5459L210.313 12.3882L209.859 12.2856C209.883 11.9243 209.901 11.4897 209.91 10.9819C209.92 10.4741 209.925 9.9834 209.925 9.50977V2.36133C209.925 2.19531 209.886 2.0293 209.808 1.86328C209.735 1.69727 209.639 1.57764 209.522 1.50439C209.429 1.44092 209.273 1.39453 209.053 1.36523C208.839 1.33105 208.665 1.30908 208.533 1.29932V0.830566L211.185 0.662109L211.287 0.771973V5.53271L211.339 5.54736C211.641 5.2251 211.971 4.9834 212.327 4.82227C212.689 4.66113 213.043 4.58057 213.389 4.58057C214.278 4.58057 215.02 4.93213 215.616 5.63525C216.212 6.33838 216.509 7.25391 216.509 8.38184ZM214.979 8.43311C214.979 8.07178 214.94 7.70312 214.862 7.32715C214.783 6.95117 214.661 6.62402 214.495 6.3457C214.329 6.0625 214.112 5.83301 213.843 5.65723C213.575 5.48145 213.253 5.39355 212.877 5.39355C212.535 5.39355 212.235 5.46191 211.976 5.59863C211.722 5.73047 211.492 5.91113 211.287 6.14062V10.3447C211.317 10.4619 211.373 10.5986 211.456 10.7549C211.544 10.9111 211.661 11.0601 211.807 11.2017C211.954 11.3384 212.12 11.4507 212.305 11.5386C212.491 11.6216 212.718 11.6631 212.987 11.6631C213.582 11.6631 214.063 11.375 214.429 10.7988C214.796 10.2227 214.979 9.43408 214.979 8.43311ZM225.327 11.8682C225.097 11.9512 224.895 12.0171 224.719 12.0659C224.548 12.1196 224.353 12.1465 224.133 12.1465C223.752 12.1465 223.447 12.0586 223.218 11.8828C222.993 11.7021 222.849 11.4409 222.785 11.0991H222.742C222.424 11.4507 222.082 11.7192 221.716 11.9048C221.355 12.0903 220.918 12.1831 220.405 12.1831C219.863 12.1831 219.416 12.0171 219.065 11.6851C218.718 11.353 218.545 10.9185 218.545 10.3813C218.545 10.103 218.584 9.854 218.662 9.63428C218.74 9.41455 218.857 9.2168 219.013 9.04102C219.136 8.89453 219.297 8.76514 219.497 8.65283C219.697 8.53564 219.885 8.44287 220.061 8.37451C220.281 8.2915 220.725 8.1377 221.394 7.91309C222.068 7.68848 222.522 7.5127 222.756 7.38574V6.66064C222.756 6.59717 222.742 6.4751 222.712 6.29443C222.688 6.11377 222.632 5.94287 222.544 5.78174C222.446 5.60107 222.307 5.44482 222.126 5.31299C221.95 5.17627 221.699 5.10791 221.372 5.10791C221.147 5.10791 220.937 5.14697 220.742 5.2251C220.552 5.29834 220.417 5.37646 220.339 5.45947C220.339 5.55713 220.361 5.70117 220.405 5.8916C220.454 6.08203 220.478 6.25781 220.478 6.41895C220.478 6.58984 220.4 6.74609 220.244 6.8877C220.093 7.0293 219.88 7.1001 219.607 7.1001C219.363 7.1001 219.182 7.01465 219.065 6.84375C218.952 6.66797 218.896 6.47266 218.896 6.25781C218.896 6.0332 218.974 5.81836 219.131 5.61328C219.292 5.4082 219.499 5.2251 219.753 5.06396C219.973 4.92725 220.239 4.8125 220.552 4.71973C220.864 4.62207 221.169 4.57324 221.467 4.57324C221.877 4.57324 222.234 4.60254 222.536 4.66113C222.844 4.71484 223.122 4.83447 223.371 5.02002C223.62 5.20068 223.808 5.44727 223.935 5.75977C224.067 6.06738 224.133 6.46533 224.133 6.95361C224.133 7.65186 224.126 8.27197 224.111 8.81396C224.096 9.35107 224.089 9.93945 224.089 10.5791C224.089 10.7695 224.121 10.9209 224.184 11.0332C224.253 11.1455 224.355 11.2407 224.492 11.3188C224.565 11.3628 224.68 11.3872 224.836 11.3921C224.997 11.397 225.161 11.3994 225.327 11.3994V11.8682ZM222.771 8.00098C222.356 8.12305 221.992 8.24268 221.679 8.35986C221.367 8.47705 221.076 8.62354 220.808 8.79932C220.564 8.96533 220.371 9.16309 220.229 9.39258C220.088 9.61719 220.017 9.88574 220.017 10.1982C220.017 10.6035 220.122 10.9014 220.332 11.0918C220.547 11.2822 220.818 11.3774 221.145 11.3774C221.492 11.3774 221.797 11.2944 222.06 11.1284C222.324 10.9575 222.546 10.7573 222.727 10.5278L222.771 8.00098ZM234.921 12H231.383V11.5166C231.496 11.5068 231.618 11.4971 231.749 11.4873C231.886 11.4775 231.998 11.458 232.086 11.4287C232.223 11.3848 232.323 11.3091 232.387 11.2017C232.455 11.0894 232.489 10.9453 232.489 10.7695V7.05615C232.489 6.54346 232.367 6.14795 232.123 5.86963C231.884 5.59131 231.591 5.45215 231.244 5.45215C230.985 5.45215 230.748 5.49365 230.534 5.57666C230.319 5.65479 230.128 5.75244 229.962 5.86963C229.801 5.98193 229.672 6.104 229.574 6.23584C229.481 6.36279 229.413 6.46533 229.369 6.54346V10.6963C229.369 10.8623 229.403 10.999 229.472 11.1064C229.54 11.2139 229.642 11.2969 229.779 11.3555C229.882 11.4043 229.992 11.4409 230.109 11.4653C230.231 11.4897 230.355 11.5068 230.482 11.5166V12H226.945V11.5166C227.057 11.5068 227.172 11.4971 227.289 11.4873C227.411 11.4775 227.516 11.458 227.604 11.4287C227.741 11.3848 227.841 11.3091 227.904 11.2017C227.973 11.0894 228.007 10.9453 228.007 10.7695V6.30908C228.007 6.14307 227.97 5.9917 227.897 5.85498C227.829 5.71338 227.731 5.59863 227.604 5.51074C227.511 5.45215 227.401 5.41064 227.274 5.38623C227.147 5.35693 227.011 5.3374 226.864 5.32764V4.85156L229.267 4.69043L229.369 4.79297V5.81104H229.406C229.523 5.69385 229.669 5.55469 229.845 5.39355C230.021 5.22754 230.187 5.09326 230.343 4.99072C230.524 4.87354 230.739 4.77588 230.988 4.69775C231.237 4.61963 231.517 4.58057 231.83 4.58057C232.523 4.58057 233.036 4.79785 233.368 5.23242C233.705 5.66211 233.873 6.23584 233.873 6.95361V10.7109C233.873 10.8818 233.903 11.021 233.961 11.1284C234.02 11.231 234.12 11.3115 234.262 11.3701C234.379 11.4189 234.479 11.4531 234.562 11.4727C234.65 11.4922 234.769 11.5068 234.921 11.5166V12ZM244.361 12H242.178C241.797 11.4482 241.39 10.8574 240.955 10.2275C240.521 9.59766 240.069 8.98486 239.6 8.38916L239 8.95312V10.667C239 10.8428 239.031 10.9893 239.095 11.1064C239.158 11.2188 239.261 11.3018 239.402 11.3555C239.52 11.4043 239.632 11.4409 239.739 11.4653C239.847 11.4897 239.971 11.5068 240.113 11.5166V12H236.568V11.5166C236.68 11.5068 236.797 11.4971 236.919 11.4873C237.042 11.4727 237.144 11.4531 237.227 11.4287C237.364 11.3848 237.466 11.3091 237.535 11.2017C237.603 11.0894 237.637 10.9453 237.637 10.7695V2.37598C237.637 2.19531 237.598 2.02686 237.52 1.87061C237.447 1.70947 237.349 1.5874 237.227 1.50439C237.125 1.42627 236.963 1.375 236.744 1.35059C236.529 1.32617 236.355 1.30908 236.224 1.29932V0.830566L238.897 0.662109L239 0.771973V8.41113C239.38 8.03027 239.791 7.62256 240.23 7.18799C240.674 6.74854 241.048 6.35791 241.351 6.01611C241.39 5.97217 241.431 5.91602 241.475 5.84766C241.524 5.77441 241.548 5.71582 241.548 5.67188C241.548 5.54004 241.441 5.44238 241.226 5.37891C241.016 5.31543 240.813 5.27148 240.618 5.24707V4.77832H243.797V5.23242C243.387 5.35449 243.023 5.5083 242.706 5.69385C242.393 5.87451 242.154 6.03809 241.988 6.18457C241.871 6.28223 241.705 6.44092 241.49 6.66064C241.275 6.88037 240.975 7.16846 240.589 7.5249C240.989 8.01807 241.438 8.60889 241.937 9.29736C242.439 9.98584 242.806 10.4839 243.035 10.7915C243.25 11.0796 243.443 11.2676 243.614 11.3555C243.785 11.4434 244.034 11.4971 244.361 11.5166V12ZM257.008 11.8682C256.779 11.9512 256.576 12.0171 256.4 12.0659C256.229 12.1196 256.034 12.1465 255.814 12.1465C255.433 12.1465 255.128 12.0586 254.899 11.8828C254.674 11.7021 254.53 11.4409 254.467 11.0991H254.423C254.105 11.4507 253.763 11.7192 253.397 11.9048C253.036 12.0903 252.599 12.1831 252.086 12.1831C251.544 12.1831 251.097 12.0171 250.746 11.6851C250.399 11.353 250.226 10.9185 250.226 10.3813C250.226 10.103 250.265 9.854 250.343 9.63428C250.421 9.41455 250.538 9.2168 250.695 9.04102C250.817 8.89453 250.978 8.76514 251.178 8.65283C251.378 8.53564 251.566 8.44287 251.742 8.37451C251.962 8.2915 252.406 8.1377 253.075 7.91309C253.749 7.68848 254.203 7.5127 254.437 7.38574V6.66064C254.437 6.59717 254.423 6.4751 254.393 6.29443C254.369 6.11377 254.313 5.94287 254.225 5.78174C254.127 5.60107 253.988 5.44482 253.807 5.31299C253.632 5.17627 253.38 5.10791 253.053 5.10791C252.828 5.10791 252.618 5.14697 252.423 5.2251C252.233 5.29834 252.098 5.37646 252.02 5.45947C252.02 5.55713 252.042 5.70117 252.086 5.8916C252.135 6.08203 252.159 6.25781 252.159 6.41895C252.159 6.58984 252.081 6.74609 251.925 6.8877C251.774 7.0293 251.561 7.1001 251.288 7.1001C251.044 7.1001 250.863 7.01465 250.746 6.84375C250.633 6.66797 250.577 6.47266 250.577 6.25781C250.577 6.0332 250.655 5.81836 250.812 5.61328C250.973 5.4082 251.18 5.2251 251.434 5.06396C251.654 4.92725 251.92 4.8125 252.233 4.71973C252.545 4.62207 252.85 4.57324 253.148 4.57324C253.558 4.57324 253.915 4.60254 254.217 4.66113C254.525 4.71484 254.803 4.83447 255.052 5.02002C255.301 5.20068 255.489 5.44727 255.616 5.75977C255.748 6.06738 255.814 6.46533 255.814 6.95361C255.814 7.65186 255.807 8.27197 255.792 8.81396C255.778 9.35107 255.77 9.93945 255.77 10.5791C255.77 10.7695 255.802 10.9209 255.865 11.0332C255.934 11.1455 256.036 11.2407 256.173 11.3188C256.246 11.3628 256.361 11.3872 256.517 11.3921C256.678 11.397 256.842 11.3994 257.008 11.3994V11.8682ZM254.452 8.00098C254.037 8.12305 253.673 8.24268 253.361 8.35986C253.048 8.47705 252.758 8.62354 252.489 8.79932C252.245 8.96533 252.052 9.16309 251.91 9.39258C251.769 9.61719 251.698 9.88574 251.698 10.1982C251.698 10.6035 251.803 10.9014 252.013 11.0918C252.228 11.2822 252.499 11.3774 252.826 11.3774C253.173 11.3774 253.478 11.2944 253.741 11.1284C254.005 10.9575 254.227 10.7573 254.408 10.5278L254.452 8.00098ZM261.966 12.1904C260.921 12.1904 260.103 11.8438 259.512 11.1504C258.921 10.457 258.626 9.52686 258.626 8.35986C258.626 7.85205 258.704 7.37842 258.86 6.93896C259.021 6.49463 259.253 6.0918 259.556 5.73047C259.844 5.38379 260.205 5.10547 260.64 4.89551C261.075 4.68066 261.548 4.57324 262.061 4.57324C262.769 4.57324 263.345 4.74414 263.789 5.08594C264.234 5.42285 264.456 5.88428 264.456 6.47021C264.456 6.71436 264.397 6.93164 264.28 7.12207C264.163 7.30762 263.97 7.40039 263.701 7.40039C263.413 7.40039 263.189 7.32715 263.028 7.18066C262.871 7.03418 262.793 6.87061 262.793 6.68994C262.793 6.47021 262.823 6.24561 262.881 6.01611C262.94 5.78174 262.974 5.61084 262.984 5.50342C262.896 5.35205 262.764 5.25195 262.588 5.20312C262.417 5.14941 262.232 5.12256 262.032 5.12256C261.797 5.12256 261.573 5.17383 261.358 5.27637C261.148 5.37402 260.943 5.55713 260.742 5.82568C260.562 6.06982 260.415 6.39941 260.303 6.81445C260.191 7.22949 260.135 7.7251 260.135 8.30127C260.135 9.20947 260.335 9.95166 260.735 10.5278C261.14 11.0991 261.67 11.3848 262.325 11.3848C262.798 11.3848 263.194 11.27 263.511 11.0405C263.833 10.811 264.131 10.4668 264.405 10.0078L264.873 10.3154C264.551 10.8916 264.126 11.3481 263.599 11.6851C263.072 12.022 262.527 12.1904 261.966 12.1904ZM269.677 12.1904C268.632 12.1904 267.814 11.8438 267.224 11.1504C266.633 10.457 266.337 9.52686 266.337 8.35986C266.337 7.85205 266.415 7.37842 266.572 6.93896C266.733 6.49463 266.965 6.0918 267.267 5.73047C267.556 5.38379 267.917 5.10547 268.351 4.89551C268.786 4.68066 269.26 4.57324 269.772 4.57324C270.48 4.57324 271.057 4.74414 271.501 5.08594C271.945 5.42285 272.167 5.88428 272.167 6.47021C272.167 6.71436 272.109 6.93164 271.992 7.12207C271.874 7.30762 271.682 7.40039 271.413 7.40039C271.125 7.40039 270.9 7.32715 270.739 7.18066C270.583 7.03418 270.505 6.87061 270.505 6.68994C270.505 6.47021 270.534 6.24561 270.593 6.01611C270.651 5.78174 270.685 5.61084 270.695 5.50342C270.607 5.35205 270.475 5.25195 270.3 5.20312C270.129 5.14941 269.943 5.12256 269.743 5.12256C269.509 5.12256 269.284 5.17383 269.069 5.27637C268.859 5.37402 268.654 5.55713 268.454 5.82568C268.273 6.06982 268.127 6.39941 268.015 6.81445C267.902 7.22949 267.846 7.7251 267.846 8.30127C267.846 9.20947 268.046 9.95166 268.447 10.5278C268.852 11.0991 269.382 11.3848 270.036 11.3848C270.51 11.3848 270.905 11.27 271.223 11.0405C271.545 10.811 271.843 10.4668 272.116 10.0078L272.585 10.3154C272.263 10.8916 271.838 11.3481 271.31 11.6851C270.783 12.022 270.239 12.1904 269.677 12.1904ZM281.087 8.31592C281.087 8.82373 281.007 9.32422 280.846 9.81738C280.685 10.3057 280.455 10.7207 280.157 11.0625C279.82 11.4531 279.43 11.7437 278.985 11.9341C278.541 12.1245 278.043 12.2197 277.491 12.2197C277.032 12.2197 276.595 12.1343 276.18 11.9634C275.765 11.7876 275.396 11.5337 275.074 11.2017C274.757 10.8745 274.503 10.4766 274.312 10.0078C274.127 9.53418 274.034 9.00439 274.034 8.41846C274.034 7.29053 274.361 6.36768 275.016 5.6499C275.675 4.93213 276.537 4.57324 277.601 4.57324C278.612 4.57324 279.444 4.91504 280.099 5.59863C280.758 6.27734 281.087 7.18311 281.087 8.31592ZM279.571 8.33057C279.571 7.96436 279.535 7.57861 279.461 7.17334C279.388 6.76318 279.278 6.4165 279.132 6.1333C278.976 5.83057 278.771 5.58887 278.517 5.4082C278.263 5.22266 277.953 5.12988 277.586 5.12988C277.21 5.12988 276.888 5.22266 276.62 5.4082C276.356 5.59375 276.141 5.84766 275.975 6.16992C275.819 6.46777 275.709 6.80713 275.646 7.18799C275.582 7.56885 275.55 7.9375 275.55 8.29395C275.55 8.7627 275.587 9.19727 275.66 9.59766C275.738 9.99316 275.86 10.3472 276.026 10.6597C276.192 10.9722 276.4 11.2188 276.649 11.3994C276.903 11.5752 277.215 11.6631 277.586 11.6631C278.197 11.6631 278.68 11.3677 279.037 10.7769C279.393 10.186 279.571 9.37061 279.571 8.33057ZM290.776 11.8682L288.425 12.0293L288.316 11.9268V11.0112H288.272C288.154 11.1333 288.023 11.2651 287.876 11.4067C287.73 11.5435 287.561 11.668 287.371 11.7803C287.151 11.9121 286.939 12.0122 286.733 12.0806C286.528 12.1489 286.238 12.1831 285.862 12.1831C285.222 12.1831 284.734 11.9756 284.397 11.5605C284.065 11.1406 283.899 10.5327 283.899 9.73682V6.27979C283.899 6.104 283.865 5.95752 283.796 5.84033C283.733 5.71826 283.638 5.61328 283.511 5.52539C283.423 5.4668 283.313 5.42529 283.181 5.40088C283.049 5.37158 282.91 5.35205 282.764 5.34229V4.86621L285.173 4.69043L285.283 4.79297V9.81006C285.283 10.3325 285.4 10.7256 285.635 10.9893C285.869 11.2529 286.15 11.3848 286.477 11.3848C286.746 11.3848 286.985 11.3433 287.195 11.2603C287.405 11.1772 287.581 11.0796 287.722 10.9673C287.854 10.8647 287.969 10.7573 288.066 10.645C288.169 10.5278 288.247 10.4204 288.301 10.3228V6.22852C288.301 6.06738 288.267 5.92578 288.198 5.80371C288.13 5.67676 288.035 5.56934 287.913 5.48145C287.825 5.42285 287.693 5.38867 287.517 5.37891C287.346 5.36426 287.153 5.35205 286.939 5.34229V4.86621L289.561 4.69043L289.671 4.79297V10.5278C289.671 10.6938 289.705 10.8354 289.773 10.9526C289.841 11.0698 289.937 11.1699 290.059 11.2529C290.147 11.3066 290.252 11.3433 290.374 11.3628C290.496 11.3774 290.63 11.3872 290.776 11.3921V11.8682ZM300.539 12H297.001V11.5166C297.113 11.5068 297.236 11.4971 297.367 11.4873C297.504 11.4775 297.616 11.458 297.704 11.4287C297.841 11.3848 297.941 11.3091 298.005 11.2017C298.073 11.0894 298.107 10.9453 298.107 10.7695V7.05615C298.107 6.54346 297.985 6.14795 297.741 5.86963C297.502 5.59131 297.209 5.45215 296.862 5.45215C296.603 5.45215 296.366 5.49365 296.152 5.57666C295.937 5.65479 295.746 5.75244 295.58 5.86963C295.419 5.98193 295.29 6.104 295.192 6.23584C295.099 6.36279 295.031 6.46533 294.987 6.54346V10.6963C294.987 10.8623 295.021 10.999 295.09 11.1064C295.158 11.2139 295.26 11.2969 295.397 11.3555C295.5 11.4043 295.61 11.4409 295.727 11.4653C295.849 11.4897 295.973 11.5068 296.1 11.5166V12H292.563V11.5166C292.675 11.5068 292.79 11.4971 292.907 11.4873C293.029 11.4775 293.134 11.458 293.222 11.4287C293.359 11.3848 293.459 11.3091 293.522 11.2017C293.591 11.0894 293.625 10.9453 293.625 10.7695V6.30908C293.625 6.14307 293.588 5.9917 293.515 5.85498C293.446 5.71338 293.349 5.59863 293.222 5.51074C293.129 5.45215 293.019 5.41064 292.892 5.38623C292.765 5.35693 292.629 5.3374 292.482 5.32764V4.85156L294.884 4.69043L294.987 4.79297V5.81104H295.024C295.141 5.69385 295.287 5.55469 295.463 5.39355C295.639 5.22754 295.805 5.09326 295.961 4.99072C296.142 4.87354 296.357 4.77588 296.606 4.69775C296.855 4.61963 297.135 4.58057 297.448 4.58057C298.141 4.58057 298.654 4.79785 298.986 5.23242C299.323 5.66211 299.491 6.23584 299.491 6.95361V10.7109C299.491 10.8818 299.521 11.021 299.579 11.1284C299.638 11.231 299.738 11.3115 299.88 11.3701C299.997 11.4189 300.097 11.4531 300.18 11.4727C300.268 11.4922 300.387 11.5068 300.539 11.5166V12ZM306.785 11.6851C306.468 11.8169 306.168 11.9268 305.885 12.0146C305.601 12.1074 305.255 12.1538 304.845 12.1538C304.239 12.1538 303.812 12.0024 303.563 11.6997C303.319 11.3921 303.197 10.96 303.197 10.4033V5.51074H301.893V4.80762H303.226V2.55908H304.559V4.80762H306.632V5.51074H304.574V9.54639C304.574 9.84912 304.583 10.103 304.603 10.3081C304.627 10.5083 304.681 10.6841 304.764 10.8354C304.842 10.9771 304.959 11.0845 305.116 11.1577C305.272 11.231 305.482 11.2676 305.745 11.2676C305.867 11.2676 306.046 11.2578 306.28 11.2383C306.519 11.2139 306.688 11.1846 306.785 11.1504V11.6851Z" fill="#545454"/>
</svg>
